<svg width="20" height="18" viewBox="0 0 20 18" fill="none" xmlns="http://www.w3.org/2000/svg">
<path fill-rule="evenodd" clip-rule="evenodd" d="M5.34884 0C3.84654 0 2.48805 0.392721 1.50201 1.35039C0.506623 2.31715 0 3.75281 0 5.59459V12.4054C0 14.2472 0.506623 15.6829 1.50201 16.6496C2.48805 17.6073 3.84654 18 5.34884 18H14.6512C16.1535 18 17.512 17.6073 18.498 16.6496C19.4934 15.6829 20 14.2472 20 12.4054V5.59459C20 3.75281 19.4934 2.31715 18.498 1.35039C17.512 0.392721 16.1535 0 14.6512 0H5.34884ZM16.7242 5.46062C17.029 5.2142 17.0852 4.75591 16.8496 4.43701C16.614 4.1181 16.1759 4.05934 15.871 4.30577L10.7109 8.47615C10.2922 8.81465 9.70772 8.81465 9.28893 8.47615L4.12893 4.30577C3.82403 4.05934 3.38588 4.1181 3.15028 4.43701C2.91468 4.75591 2.97086 5.2142 3.27576 5.46062L8.43581 9.63107C9.35712 10.3756 10.6428 10.3756 11.5641 9.63107L16.7242 5.46062Z" fill="black"/>
</svg>
