<svg width="132" height="18" viewBox="0 0 132 18" fill="none" xmlns="http://www.w3.org/2000/svg">
<path d="M24.8328 0.274719V4.02159H11.2557C13.3838 6.66478 15.5119 9.30797 17.6399 11.9512C17.7778 12.2114 18.5238 13.6819 17.9419 15.42C17.477 16.8101 16.4479 17.5218 16.1282 17.7256H0V14.0185H13.6314C13.6063 13.707 13.5332 13.2492 13.3107 12.7423C13.0495 12.1456 12.6953 11.739 12.4571 11.5038C10.8128 9.39994 9.16733 7.295 7.52296 5.19111C7.45714 4.81381 7.27432 3.48438 8.05681 2.12255C8.71393 0.97706 9.68237 0.45344 10.0574 0.274719H24.8349H24.8328Z" fill="white"/>
<path d="M53.3217 0.273987C53.3196 6.0913 53.3175 11.9086 53.3154 17.7259H48.3896V11.5219C42.6123 11.4864 36.8341 11.4508 31.0568 11.4153C31.038 13.5192 31.0182 15.6231 30.9994 17.7259H25.9492V0.273987H31.0349C31.0108 2.36743 30.9868 4.46087 30.9638 6.5543C36.7494 6.53027 42.534 6.50727 48.3196 6.48323C48.2841 4.41383 48.2486 2.34443 48.213 0.275033H53.3227L53.3217 0.273987Z" fill="white"/>
<path d="M59.3435 0.274536C62.2008 2.58432 65.0581 4.89411 67.9143 7.20389C70.4989 4.89411 73.0836 2.58432 75.6671 0.274536H80.5397C76.8644 3.59185 73.1901 6.91021 69.5148 10.2275V17.7254H65.6588C65.664 15.2265 65.6693 12.7265 65.6745 10.2275C61.9281 6.91021 58.1818 3.59185 54.4365 0.274536H59.3446H59.3435Z" fill="white"/>
<path d="M81.6533 0.263L81.902 14.0078C81.9385 14.3057 82.1443 15.7386 83.4314 16.7879C84.776 17.8843 86.2971 17.7453 86.577 17.7149H103.968V13.7392C98.2308 13.7632 92.4932 13.7862 86.7546 13.8103C86.7076 9.29416 86.6596 4.7791 86.6126 0.263C84.9598 0.263 83.3061 0.263 81.6533 0.263Z" fill="white"/>
<path d="M131.112 8.21714C130.611 3.25789 126.858 0.628293 126.332 0.273987H105.082V17.7259H127.206C127.551 17.4364 131.681 13.8474 131.112 8.21714ZM124.645 14.0606H108.759V3.93829H124.018C124.396 4.14418 127.09 5.66906 127.45 8.54532C127.859 11.8114 124.893 13.8923 124.645 14.0606Z" fill="white"/>
</svg>
