<svg width="20" height="20" viewBox="0 0 20 20" fill="none" xmlns="http://www.w3.org/2000/svg">
<path d="M17.7288 19.4259L19.5078 17.6414C19.6753 17.4743 19.8056 17.2736 19.8899 17.0524C19.9743 16.8313 20.0108 16.5947 19.9972 16.3584C19.9836 16.122 19.9201 15.8913 19.8109 15.6813C19.7017 15.4713 19.5493 15.287 19.3637 15.1403L16.5682 12.9673C16.2746 12.7362 15.9119 12.6105 15.5385 12.6105C15.1651 12.6105 14.8024 12.7362 14.5088 12.9673L13.8905 13.4607C13.57 13.7151 13.1673 13.8426 12.7591 13.8189C12.3508 13.7952 11.9656 13.6219 11.6766 13.3321L6.69851 8.34579C6.40519 8.05557 6.22929 7.667 6.20463 7.25476C6.17996 6.84251 6.30827 6.43568 6.56489 6.11244L7.0496 5.50096C7.28013 5.20626 7.40541 4.84266 7.40541 4.46827C7.40541 4.09387 7.28013 3.73028 7.0496 3.43557L4.89593 0.645852C4.75083 0.458548 4.56756 0.304357 4.35831 0.193544C4.14907 0.0827308 3.91866 0.0178393 3.68242 0.00318968C3.44619 -0.0114599 3.20955 0.0244685 2.98826 0.108583C2.76697 0.192697 2.5661 0.323067 2.39904 0.491013L0.620042 2.27297C-0.606133 3.48806 -0.600893 6.947 6.23215 13.7993C13.0652 20.6515 16.6022 20.5466 17.7288 19.4259Z" fill="black"/>
</svg>
